<svg xmlns="http://www.w3.org/2000/svg" viewBox="0 0 800 520" role="img" aria-labelledby="title desc">
  <title id="title">Confidentialite juridique</title>
  <desc id="desc">Illustration d'un bouclier et de dossiers securises.</desc>
  <defs>
    <linearGradient id="bg" x1="0%" y1="0%" x2="100%" y2="100%">
      <stop offset="0%" stop-color="#0f1b2d"/>
      <stop offset="100%" stop-color="#1f3f63"/>
    </linearGradient>
    <linearGradient id="shield" x1="0%" y1="0%" x2="0%" y2="100%">
      <stop offset="0%" stop-color="#f4d889"/>
      <stop offset="100%" stop-color="#d7a739"/>
    </linearGradient>
  </defs>
  <rect width="800" height="520" rx="28" fill="url(#bg)"/>
  <rect x="88" y="112" width="292" height="286" rx="20" fill="#ffffff22" stroke="#f4d88955"/>
  <rect x="120" y="158" width="228" height="16" rx="8" fill="#f8e7b3"/>
  <rect x="120" y="206" width="198" height="12" rx="6" fill="#d4deec"/>
  <rect x="120" y="238" width="176" height="12" rx="6" fill="#d4deec"/>
  <rect x="120" y="270" width="164" height="12" rx="6" fill="#d4deec"/>
  <path d="M530 120l122 42v89c0 106-87 149-122 164-35-15-122-58-122-164v-89l122-42z" fill="url(#shield)"/>
  <path d="M530 189c31 0 56 25 56 56s-25 56-56 56-56-25-56-56 25-56 56-56zm0 31c-14 0-25 11-25 25s11 25 25 25 25-11 25-25-11-25-25-25z" fill="#12233a"/>
</svg>
